<mxfile host="app.diagrams.net" modified="2023-08-14T11:56:30.838Z" agent="Mozilla/5.0 (Windows NT 10.0; Win64; x64; rv:109.0) Gecko/20100101 Firefox/116.0" version="21.6.7" etag="CgG1HniwASy93TzjPTuH" type="github">
  <diagram name="Page-1" id="H42ZT3wpU5OQdbJqZ_mz">
    <mxGraphModel>
      <root>
        <mxCell id="0" />
        <mxCell id="1" parent="0" />
      </root>
    </mxGraphModel>
  </diagram>
</mxfile>
